HIERARCHY
ROOT Hips
{
	OFFSET 0.00000 0.00000 0.00000
	CHANNELS 6 Xposition Yposition Zposition Zrotation Yrotation Xrotation 
	JOINT LHipJoint
	{
		OFFSET 0 0 0
		CHANNELS 3 Zrotation Yrotation Xrotation
		JOINT LeftUpLeg
		{
			OFFSET 1.49846 -1.74315 1.08250
			CHANNELS 3 Zrotation Yrotation Xrotation
			JOINT LeftLeg
			{
				OFFSET 2.40966 -6.62050 0.00000
				CHANNELS 3 Zrotation Yrotation Xrotation
				JOINT LeftFoot
				{
					OFFSET 2.68066 -7.36505 0.00000
					CHANNELS 3 Zrotation Yrotation Xrotation
					JOINT LeftToeBase
					{
						OFFSET 0.14291 -0.39265 2.35870
						CHANNELS 3 Zrotation Yrotation Xrotation
						End Site
						{
							OFFSET 0.00000 -0.00000 1.20470
						}
					}
				}
			}
		}
	}
	JOINT RHipJoint
	{
		OFFSET 0 0 0
		CHANNELS 3 Zrotation Yrotation Xrotation
		JOINT RightUpLeg
		{
			OFFSET -1.46318 -1.74316 1.08250
			CHANNELS 3 Zrotation Yrotation Xrotation
			JOINT RightLeg
			{
				OFFSET -2.39759 -6.58734 0.00000
				CHANNELS 3 Zrotation Yrotation Xrotation
				JOINT RightFoot
				{
					OFFSET -2.63570 -7.24154 0.00000
					CHANNELS 3 Zrotation Yrotation Xrotation
					JOINT RightToeBase
					{
						OFFSET -0.17578 -0.48294 2.47180
						CHANNELS 3 Zrotation Yrotation Xrotation
						End Site
						{
							OFFSET -0.00000 -0.00000 1.26600
						}
					}
				}
			}
		}
	}
	JOINT LowerBack
	{
		OFFSET 0 0 0
		CHANNELS 3 Zrotation Yrotation Xrotation
		JOINT Spine
		{
			OFFSET 0.00843 2.19877 -0.20423
			CHANNELS 3 Zrotation Yrotation Xrotation
			JOINT Spine1
			{
				OFFSET -0.03080 2.21436 -0.05138
				CHANNELS 3 Zrotation Yrotation Xrotation
				JOINT Neck
				{
					OFFSET 0 0 0
					CHANNELS 3 Zrotation Yrotation Xrotation
					JOINT Neck1
					{
						OFFSET -0.04063 1.58841 0.30440
						CHANNELS 3 Zrotation Yrotation Xrotation
						JOINT Head
						{
							OFFSET 0.09277 1.59484 -0.39337
							CHANNELS 3 Zrotation Yrotation Xrotation
							End Site
							{
								OFFSET 0.03488 1.66530 -0.17040
							}
						}
					}
				}
				JOINT LeftShoulder
				{
					OFFSET 0 0 0
					CHANNELS 3 Zrotation Yrotation Xrotation
					JOINT LeftArm
					{
						OFFSET 3.03849 1.31522 0.02556
						CHANNELS 3 Zrotation Yrotation Xrotation
						JOINT LeftForeArm
						{
							OFFSET 5.25537 -0.00000 0.00000
							CHANNELS 3 Zrotation Yrotation Xrotation
							JOINT LeftHand
							{
								OFFSET 3.38855 -0.00000 -0.00000
								CHANNELS 3 Zrotation Yrotation Xrotation
								JOINT LeftFingerBase
								{
									OFFSET 0 0 0
									CHANNELS 3 Zrotation Yrotation Xrotation
									JOINT LeftHandIndex1
									{
										OFFSET 0.61452 -0.00000 0.00000
										CHANNELS 3 Zrotation Yrotation Xrotation
										End Site
										{
											OFFSET 0.49544 -0.00000 0.00000
										}
									}
								}
								JOINT LThumb
								{
									OFFSET 0 0 0
									CHANNELS 3 Zrotation Yrotation Xrotation
									End Site
									{
										OFFSET 0.50300 -0.00000 0.50300
									}
								}
							}
						}
					}
				}
				JOINT RightShoulder
				{
					OFFSET 0 0 0
					CHANNELS 3 Zrotation Yrotation Xrotation
					JOINT RightArm
					{
						OFFSET -3.06926 1.12091 -0.13185
						CHANNELS 3 Zrotation Yrotation Xrotation
						JOINT RightForeArm
						{
							OFFSET -5.38183 -0.00000 0.00000
							CHANNELS 3 Zrotation Yrotation Xrotation
							JOINT RightHand
							{
								OFFSET -3.16988 -0.00000 0.00000
								CHANNELS 3 Zrotation Yrotation Xrotation
								JOINT RightFingerBase
								{
									OFFSET 0 0 0
									CHANNELS 3 Zrotation Yrotation Xrotation
									JOINT RightHandIndex1
									{
										OFFSET -0.63768 -0.00000 0.00000
										CHANNELS 3 Zrotation Yrotation Xrotation
										End Site
										{
											OFFSET -0.51411 -0.00000 0.00000
										}
									}
								}
								JOINT RThumb
								{
									OFFSET 0 0 0
									CHANNELS 3 Zrotation Yrotation Xrotation
									End Site
									{
										OFFSET -0.52196 -0.00000 0.52196
									}
								}
							}
						}
					}
				}
			}
		}
	}
}
MOTION
Frames: 12
Frame Time: 0.0285714
0.00 0.00 0.00 0 0 0 0 0 0 -21 0 0 0 0 0 0 0 0 0 0 0 0 0 0 21 0 0 0 0 0 0 0 0 0 0 0 0 0 0 0 0 0 0 0 0 0 0 -16 0 0 21 0 0 11 0 0 0 -8 0 0 0 0 0 0 0 0 0 0 0 0 0 0 0 0 0 0 0 0 8 0 0 0 0 0 0 0 0 0 0 0 0 0 0 0 0 0
0.00 0.00 0.00 0.7228 4.1147 11.6825 0.0000 0.0000 0.0000 -10.0646 -8.4141 -24.2496 4.7880 13.1411 39.8988 0.5902 0.3807 -14.6583 0.3177 -3.6231 -10.0188 0.0000 0.0000 0.0000 19.8761 26.6808 -4.2515 -2.2555 -9.3791 26.9886 -3.8999 -18.4252 -46.6864 -0.6123 -5.0083 13.9323 3.9770 -0.9069 -0.1118 -0.9507 -1.2599 3.2133 -3.2466 -0.5016 3.2678 -8.5269 -4.9898 -24.1654 6.7289 -5.7629 23.6870 2.9569 -2.4502 12.2995 0.0000 0.0000 0.0000 -25.9041 12.2792 1.2060 16.5792 -26.2997 -3.8991 -0.0000 -0.0000 13.0397 9.2079 1.3569 0.2199 -7.1250 0.0000 -0.0000 -13.7772 31.1679 4.7809 0.0000 0.0000 0.0000 21.2489 -4.8891 4.5377 -14.7318 23.7711 -3.1170 0.0000 -0.0000 -6.6161 -7.5211 5.4625 -0.7201 7.1250 -0.0000 -0.0000 14.1967 -24.4663 7.2575
0.00 0.00 0.00 0.5493 8.1228 14.0185 0.0000 0.0000 0.0000 -2.1487 -12.2220 -35.2233 2.5824 9.9863 28.9322 0.3053 5.0138 -13.4959 0.5161 -4.6047 -12.7844 0.0000 0.0000 0.0000 21.9592 27.1951 10.7717 -0.4300 -4.2081 11.6629 -5.2726 -24.0265 -55.1229 -0.6947 -5.3282 14.8469 4.3175 -0.5694 1.1291 -1.3710 -0.7458 2.9053 -3.8424 -0.2591 2.2861 -8.5681 -4.8903 -24.3510 4.2428 -4.6865 18.1143 2.1642 -2.2568 10.0794 0.0000 -0.0000 0.0000 -52.6219 15.1480 25.7800 29.0695 -40.0823 -10.8054 -0.0000 -0.0000 19.7276 9.7863 -5.9799 -1.0294 -7.1250 0.0000 -0.0000 -12.4950 23.9254 6.5039 0.0000 -0.0000 0.0000 55.5092 2.4438 20.7749 -18.5751 28.8873 -4.8239 0.0000 -0.0000 -1.4969 -11.0570 10.5006 -2.0396 7.1250 -0.0000 -0.0000 11.2951 -19.3900 7.0418
0.00 0.00 0.00 -1.7569 11.2362 14.1205 0.0000 0.0000 0.0000 0.6192 -11.3427 -38.7404 1.9668 8.7966 25.1611 -0.2059 10.2635 -10.5929 0.6533 -5.1702 -14.3947 0.0000 0.0000 0.0000 20.3208 12.0956 15.0010 0.0000 -0.0000 0.0000 -0.9028 -25.2072 -40.0176 -0.0031 -0.3567 0.9800 3.9634 -0.3918 1.4217 -1.6461 -0.4889 2.6293 -3.9218 -0.1501 1.8611 -8.9950 -5.6104 -25.2253 5.6386 -5.6959 15.9772 2.5480 -2.5567 9.5935 -0.0000 0.0000 0.0000 -59.6250 13.8026 31.2847 25.3522 -36.5618 -8.4988 -0.0000 -0.0000 22.8079 8.1102 -6.9543 -0.9885 -7.1250 0.0000 -0.0000 -13.6266 22.9962 7.4258 -0.0000 0.0000 0.0000 71.2653 3.3507 35.2183 -19.0159 29.4384 -5.0386 0.0000 0.0000 8.4488 -15.6591 17.4124 -4.7950 7.1250 -0.0000 -0.0000 8.1010 -12.0747 6.2919
0.00 0.00 0.00 -1.8744 13.1818 14.2973 0.0000 0.0000 0.0000 -3.4758 -10.8873 -40.0906 3.3609 11.2575 33.1535 -0.0405 4.6315 -4.8320 0.6305 -5.0807 -14.1388 0.0000 0.0000 0.0000 15.0247 -0.2893 14.9719 0.0000 -0.0000 0.0000 1.0898 -23.4344 -24.7818 -0.9062 6.0662 -16.9766 1.0666 0.2612 2.1356 -2.8286 0.3921 2.4446 -3.5106 0.2419 1.3388 -10.9138 -7.4056 -23.6473 9.9756 -8.2629 11.0079 3.9615 -3.4313 8.1193 -0.0000 0.0000 0.0000 -61.1213 15.0591 35.2079 24.6856 -35.8809 -8.1049 -0.0000 -0.0000 19.9273 6.2379 -5.4852 -0.5986 -7.1250 0.0000 -0.0000 -15.1280 24.4553 7.7702 -0.0000 0.0000 0.0000 79.3768 0.1479 45.4811 -24.4820 35.6698 -7.9859 0.0000 0.0000 6.2907 -18.9418 18.4454 -6.1973 7.1250 -0.0000 -0.0000 5.9855 -10.6385 4.8046
0.00 0.00 0.00 -0.7113 13.7867 14.7924 0.0000 0.0000 0.0000 -8.2403 -11.3380 -35.4123 3.2399 11.0737 32.5287 0.0832 4.2954 -8.6588 0.9177 -6.1036 -17.0852 0.0000 0.0000 0.0000 10.9978 -5.4323 5.2165 -0.7907 -5.6763 15.8481 1.5591 -23.9863 -20.8190 -0.2197 3.0176 -8.3278 -1.1874 0.9942 1.8065 -3.9960 1.3459 1.8100 -3.4546 0.6919 0.9143 -13.0688 -8.7085 -19.6562 11.8284 -9.9896 8.4025 4.7356 -4.3166 7.0265 0.0000 -0.0000 0.0000 -61.3518 14.8412 35.9102 22.4671 -33.5010 -6.8419 -0.0000 -0.0000 17.5056 5.6205 -3.7359 -0.3674 -7.1250 0.0000 -0.0000 -15.7904 26.1517 7.4848 0.0000 -0.0000 0.0000 80.6220 -1.2674 51.6884 -26.1663 37.3724 -8.9884 0.0000 0.0000 4.3794 -16.0073 18.5695 -5.2200 7.1250 -0.0000 -0.0000 7.9084 -10.8577 6.3394
0.00 0.00 0.00 -0.9153 14.8141 14.1497 0.0000 0.0000 0.0000 -11.1568 -10.5674 -29.0633 2.5654 9.9558 28.8337 0.2013 3.6860 -10.6545 0.8075 -5.7347 -16.0165 0.0000 0.0000 0.0000 10.8797 -9.2632 -7.0021 -3.4353 -11.3685 33.5329 1.1975 -19.1835 -10.6077 -0.0624 1.6121 -4.4347 -1.7862 1.2304 2.4675 -4.4210 1.6154 1.5317 -3.5802 0.8222 0.2686 -14.5162 -9.5012 -16.3055 12.3398 -11.0273 5.8149 5.0763 -4.9523 5.9040 -0.0000 -0.0000 0.0000 -61.3047 14.6800 33.7452 21.1337 -31.9841 -6.1206 -0.0000 -0.0000 15.4531 4.5293 -1.8026 -0.1428 -7.1250 0.0000 -0.0000 -16.8724 28.0044 7.2685 -0.0000 -0.0000 0.0000 80.7269 -0.2209 55.4706 -25.8198 37.0302 -8.7789 0.0000 0.0000 5.4182 -12.0833 18.9867 -3.9842 7.1250 -0.0000 -0.0000 10.4694 -10.8432 8.4591
0.00 0.00 0.00 -1.2215 16.6443 12.5914 0.0000 0.0000 0.0000 -14.1976 -12.3738 -19.0923 1.9543 8.7703 25.0795 0.2930 6.0315 -14.2026 0.6110 -5.0029 -13.9167 0.0000 0.0000 0.0000 14.9021 -10.5451 -22.1727 -7.3836 -15.6466 50.3105 -0.0334 0.8307 -3.2628 -0.5633 4.8070 -13.3588 -2.3672 1.0947 2.8958 -4.3766 1.4129 1.7281 -3.2102 0.7179 0.2058 -15.8033 -10.5363 -14.0834 12.2188 -12.3326 3.8940 5.1473 -5.6982 5.1865 -0.0000 -0.0000 0.0000 -60.4229 14.9682 32.2860 20.7911 -31.5837 -5.9402 -0.0000 -0.0000 12.1309 6.6876 0.0312 0.0037 -7.1250 0.0000 -0.0000 -15.5232 29.8132 5.9493 -0.0000 -0.0000 0.0000 79.6049 1.7022 58.8423 -25.8619 37.0720 -8.8043 0.0000 0.0000 3.8623 -11.9950 17.7457 -3.7052 7.1250 -0.0000 -0.0000 10.5166 -12.0908 8.2236
0.00 0.00 0.00 2.2398 20.4275 11.6885 0.0000 0.0000 0.0000 -23.2633 -8.5953 2.8343 0.5387 4.7028 13.0627 0.5325 7.2954 -18.3421 0.7917 -5.6796 -15.8576 0.0000 0.0000 0.0000 19.7382 4.5824 -40.6124 -4.1297 -12.3310 36.9132 -0.6046 0.7804 -14.4427 -0.5128 4.5902 -12.7434 -5.5225 -0.2036 2.5401 -4.6355 -0.2928 2.4366 -1.6734 -0.1712 1.0923 -16.2736 -11.1954 -16.8220 11.7307 -12.9979 8.6226 4.8086 -5.9689 7.2118 0.0000 0.0000 0.0000 -58.2031 11.8967 31.0977 19.1297 -29.5796 -5.0947 -0.0000 -0.0000 10.2346 10.3255 2.1098 0.3843 -7.1250 0.0000 -0.0000 -13.0125 31.9422 4.2539 0.0000 0.0000 0.0000 77.2547 9.1895 57.0922 -28.6875 39.7415 -10.5603 0.0000 0.0000 4.8233 -13.2975 15.2387 -3.5547 7.1250 -0.0000 -0.0000 9.6474 -14.4953 7.0276
0.00 0.00 0.00 2.8683 27.6251 9.9082 0.0000 0.0000 0.0000 -17.5018 4.0111 7.0130 1.6237 8.0338 22.8167 -0.3545 -10.9676 0.5934 1.2610 -7.1184 -20.0667 0.0000 0.0000 0.0000 17.6396 12.0340 -34.7631 -2.5773 -9.9772 28.9028 -0.0215 -6.7673 -10.1616 -0.2369 3.1324 -8.6475 -1.8020 0.4812 2.0609 -3.9151 0.7339 3.3227 -3.0195 0.3925 2.2902 -17.4119 -11.8009 -14.3090 10.2577 -14.0309 12.3347 4.3870 -6.7210 8.1256 -0.0000 0.0000 0.0000 -60.6403 11.4723 35.8112 25.4115 -36.6217 -8.5342 -0.0000 -0.0000 5.5170 15.7862 0.1393 0.0394 -7.1250 0.0000 -0.0000 -8.4870 30.0681 3.1234 -0.0000 0.0000 0.0000 72.8471 20.7830 58.6738 -25.5278 36.7386 -8.6037 0.0000 0.0000 11.8156 -2.3247 10.7307 -0.4331 7.1250 -0.0000 -0.0000 17.3289 -19.4625 11.0792
0.00 0.00 0.00 1.2222 29.2308 8.1506 0.0000 0.0000 0.0000 -13.4916 3.6200 -1.7965 4.9091 13.2807 40.4286 -0.1182 -8.7214 9.8372 0.4081 -4.1010 -11.3610 0.0000 0.0000 0.0000 21.1996 8.3673 -32.2874 -2.9045 -10.5389 30.7400 -0.1577 -4.3763 -10.3963 -0.0587 1.5628 -4.2987 -0.1592 0.9036 2.5833 -3.7810 1.2990 3.5342 -3.8142 0.7149 2.2715 -17.0140 -11.8578 -13.7808 10.4320 -14.4887 14.5237 4.3221 -6.9309 8.8239 -0.0000 0.0000 0.0000 -61.0652 11.9900 37.1567 25.7668 -36.9775 -8.7470 -0.0000 -0.0000 3.4242 18.0786 1.5355 0.5012 -7.1250 0.0000 -0.0000 -6.7975 31.5500 2.2499 -0.0000 0.0000 0.0000 72.8681 23.7971 60.8826 -23.5051 34.6366 -7.4234 0.0000 0.0000 10.4485 -1.4067 9.8764 -0.2413 7.1250 -0.0000 -0.0000 18.0465 -20.2927 11.2307
0.00 0.00 0.00 -2.1683 32.7227 5.8353 0.0000 0.0000 0.0000 -8.0209 -0.3828 -14.6814 9.9575 17.3859 59.3462 -0.0860 -5.3221 3.1772 1.2845 -7.1819 -20.2554 0.0000 0.0000 0.0000 26.4744 4.7399 -26.8925 -2.6356 -10.0803 29.2373 -0.2426 -4.7921 -12.3129 -0.0057 -0.4855 1.3341 1.7841 0.9968 2.7164 -3.1763 1.4316 3.6221 -4.2872 0.8211 2.3310 -16.9073 -12.3743 -14.1321 11.4720 -15.7510 18.3739 4.4219 -7.3907 10.5112 0.0000 -0.0000 0.0000 -62.0444 12.5021 38.7342 25.5746 -36.7856 -8.6317 -0.0000 -0.0000 2.3419 18.5423 1.4527 0.4872 -7.1250 0.0000 -0.0000 -6.4215 31.4724 2.1360 0.0000 -0.0000 0.0000 72.9943 28.6960 63.7569 -20.5148 31.2576 -5.7961 0.0000 0.0000 8.2081 -1.0335 9.2292 -0.1658 7.1250 -0.0000 -0.0000 18.3769 -20.9120 11.1864
